<svg
    viewBox="0 0 47 42"
    fill="none"
    xmlns="http://www.w3.org/2000/svg"
    >
    <path
        d="M41.0883 3.27558C40.58 1.776 39.1567 0.708496 37.4792 0.708496H9.52083C7.84333 0.708496 6.44542 1.776 5.91167 3.27558L0.625 18.5002V38.8335C0.625 40.2314 1.76875 41.3752 3.16667 41.3752H5.70833C7.10625 41.3752 8.25 40.2314 8.25 38.8335V36.2918H38.75V38.8335C38.75 40.2314 39.8938 41.3752 41.2917 41.3752H43.8333C45.2313 41.3752 46.375 40.2314 46.375 38.8335V18.5002L41.0883 3.27558ZM10.4104 5.79183H36.5642L39.3092 13.6964H7.66542L10.4104 5.79183ZM41.2917 31.2085H5.70833V18.5002H41.2917V31.2085Z"
        fill="#BA5E5E"
    />
    <path
        d="M12.0625 28.6665C14.1681 28.6665 15.875 26.9596 15.875 24.854C15.875 22.7484 14.1681 21.0415 12.0625 21.0415C9.95691 21.0415 8.25 22.7484 8.25 24.854C8.25 26.9596 9.95691 28.6665 12.0625 28.6665Z"
        fill="#BA5E5E"
    />
    <path
        d="M34.9375 28.6665C37.0431 28.6665 38.75 26.9596 38.75 24.854C38.75 22.7484 37.0431 21.0415 34.9375 21.0415C32.8319 21.0415 31.125 22.7484 31.125 24.854C31.125 26.9596 32.8319 28.6665 34.9375 28.6665Z"
        fill="#BA5E5E"
    />
</svg>