<svg
    viewBox="0 0 35 35"
    fill="none"
    xmlns="http://www.w3.org/2000/svg"
>
    <path
    d="M29.9567 9.51584C29.64 8.58167 28.7533 7.91667 27.7083 7.91667H10.2917C9.24667 7.91667 8.37583 8.58167 8.04333 9.51584L4.75 19V31.6667C4.75 32.5375 5.4625 33.25 6.33333 33.25H7.91667C8.7875 33.25 9.5 32.5375 9.5 31.6667V30.0833H28.5V31.6667C28.5 32.5375 29.2125 33.25 30.0833 33.25H31.6667C32.5375 33.25 33.25 32.5375 33.25 31.6667V19L29.9567 9.51584ZM10.8458 11.0833H27.1383L28.8483 16.0075H9.13583L10.8458 11.0833ZM30.0833 26.9167H7.91667V19H30.0833V26.9167Z"
    fill="#BA5E5E"
    />
    <path
    d="M11.875 25.3333C13.1867 25.3333 14.25 24.27 14.25 22.9583C14.25 21.6467 13.1867 20.5833 11.875 20.5833C10.5633 20.5833 9.5 21.6467 9.5 22.9583C9.5 24.27 10.5633 25.3333 11.875 25.3333Z"
    fill="#BA5E5E"
    />
    <path
    d="M26.125 25.3333C27.4367 25.3333 28.5 24.27 28.5 22.9583C28.5 21.6467 27.4367 20.5833 26.125 20.5833C24.8133 20.5833 23.75 21.6467 23.75 22.9583C23.75 24.27 24.8133 25.3333 26.125 25.3333Z"
    fill="#BA5E5E"
    />
</svg>