<svg
    viewBox="0 0 20 35"
    fill="none"
    xmlns="http://www.w3.org/2000/svg"
>
    <path
    d="M13.5721 31.1837C13.5721 33.2914 11.805 35 9.62533 35C7.4456 35 5.67859 33.2914 5.67859 31.1837C5.67859 29.076 7.4456 27.3674 9.62533 27.3674C11.805 27.3674 13.5721 29.076 13.5721 31.1837Z"
    fill="#BA5E5E"
    />
    <path
    d="M9.62797 0.630325C4.65993 0.630325 0.641846 4.57614 0.641846 9.45483C0.641846 16.0732 9.62797 25.8432 9.62797 25.8432C9.62797 25.8432 18.6141 16.0732 18.6141 9.45483C18.6141 4.57614 14.596 0.630325 9.62797 0.630325ZM3.20931 9.45483C3.20931 5.97545 6.08487 3.15161 9.62797 3.15161C13.1711 3.15161 16.0466 5.97545 16.0466 9.45483C16.0466 13.0855 12.3495 18.5189 9.62797 21.91C6.95781 18.5441 3.20931 13.0477 3.20931 9.45483Z"
    fill="#BA5E5E"
    />
    <path
    d="M9.62803 12.6064C11.4005 12.6064 12.8374 11.1954 12.8374 9.45483C12.8374 7.71424 11.4005 6.30322 9.62803 6.30322C7.85557 6.30322 6.4187 7.71424 6.4187 9.45483C6.4187 11.1954 7.85557 12.6064 9.62803 12.6064Z"
    fill="#FF0000"
    />
</svg>