<svg
viewBox="0 0 55 60"
fill="none"
xmlns="http://www.w3.org/2000/svg"
>
<path
    d="M48.8889 6.66667V53.3333H6.85579V6.66667H48.8889ZM48.8889 0H6.85579C3.52316 0 0.851059 3 0.851059 6.66667V53.3333C0.851059 57 3.52316 60 6.85579 60H48.8889C52.1915 60 54.8936 57 54.8936 53.3333V6.66667C54.8936 3 52.1915 0 48.8889 0ZM27.8723 30C22.9184 30 18.8652 25.5 18.8652 20C18.8652 14.5 22.9184 10 27.8723 10C32.8262 10 36.8794 14.5 36.8794 20C36.8794 25.5 32.8262 30 27.8723 30ZM27.8723 16.6667C26.221 16.6667 24.87 18.1667 24.87 20C24.87 21.8333 26.221 23.3333 27.8723 23.3333C29.5236 23.3333 30.8747 21.8333 30.8747 20C30.8747 18.1667 29.5236 16.6667 27.8723 16.6667ZM45.8865 50H9.85815V44.9C9.85815 36.5667 21.7775 32.9667 27.8723 32.9667C33.9671 32.9667 45.8865 36.5667 45.8865 44.9V50ZM16.7936 43.3333H38.9511C36.8794 41.4667 31.8054 39.6 27.8723 39.6C23.9392 39.6 18.8352 41.4667 16.7936 43.3333Z"
    fill="#BA5E5E"
/>
</svg>