<svg
    viewBox="0 0 35 26"
    fill="none"
    xmlns="http://www.w3.org/2000/svg"
>
    <g clipPath="url(#clip0_502_2658)">
    <path
        d="M28.6364 15.9091V3.18182C28.6364 1.43182 27.2045 0 25.4545 0H3.18182C1.43182 0 0 1.43182 0 3.18182V15.9091C0 17.6591 1.43182 19.0909 3.18182 19.0909H25.4545C27.2045 19.0909 28.6364 17.6591 28.6364 15.9091ZM25.4545 15.9091H3.18182V3.18182H25.4545V15.9091ZM14.3182 4.77273C11.6773 4.77273 9.54545 6.90454 9.54545 9.54545C9.54545 12.1864 11.6773 14.3182 14.3182 14.3182C16.9591 14.3182 19.0909 12.1864 19.0909 9.54545C19.0909 6.90454 16.9591 4.77273 14.3182 4.77273ZM35 4.77273V22.2727C35 24.0227 33.5682 25.4545 31.8182 25.4545H4.77273C4.77273 23.8636 4.77273 24.0227 4.77273 22.2727H31.8182V4.77273C33.5682 4.77273 33.4091 4.77273 35 4.77273Z"
        fill="#BA5E5E"
    />
    </g>
    <defs>
    <clipPath id="clip0_502_2658">
        <rect width="35" height="25.4545" fill="white" />
    </clipPath>
    </defs>
</svg>