<svg
    viewBox="0 0 23 32"
    fill="none"
    xmlns="http://www.w3.org/2000/svg"
>
    <path
    d="M11.5 4.36364V0L5.75 5.81818L11.5 11.6364V7.27273C16.2581 7.27273 20.125 11.1855 20.125 16C20.125 17.4691 19.7656 18.8655 19.1187 20.0727L21.2175 22.1964C22.3388 20.4073 23 18.2836 23 16C23 9.57091 17.8538 4.36364 11.5 4.36364ZM11.5 24.7273C6.74188 24.7273 2.875 20.8145 2.875 16C2.875 14.5309 3.23437 13.1345 3.88125 11.9273L1.7825 9.80364C0.66125 11.5927 0 13.7164 0 16C0 22.4291 5.14625 27.6364 11.5 27.6364V32L17.25 26.1818L11.5 20.3636V24.7273Z"
    fill="#592626"
    />
</svg>