<svg
    viewBox="0 0 35 35"
    fill="none"
    xmlns="http://www.w3.org/2000/svg"
>
    <path
    d="M18.9842 3.16667C10.2442 3.16667 3.16669 10.26 3.16669 19C3.16669 27.74 10.2442 34.8333 18.9842 34.8333C27.74 34.8333 34.8334 27.74 34.8334 19C34.8334 10.26 27.74 3.16667 18.9842 3.16667ZM19 31.6667C12.0017 31.6667 6.33335 25.9983 6.33335 19C6.33335 12.0017 12.0017 6.33334 19 6.33334C25.9984 6.33334 31.6667 12.0017 31.6667 19C31.6667 25.9983 25.9984 31.6667 19 31.6667ZM19.7917 11.0833H17.4167V20.5833L25.7292 25.5708L26.9167 23.6233L19.7917 19.3958V11.0833Z"
    fill="#BA5E5E"
    />
</svg>